<svg xmlns="http://www.w3.org/2000/svg" width="266" height="78" viewBox="0 0 186 36">
    <g fill="none" fill-rule="evenodd">
        <path fill="#000" d="M13.518 35.038c-.527-.616-1.168-1.334-1.927-1.978-1.193-1.024-2.517-1.736-4-2.493-1.776-.909-3.613-1.846-4.998-3.477-.906-1.07-1.527-2.416-1.847-4.004-.273-1.353-.317-2.882-.128-4.42.137-1.11.393-2.218.742-3.208.235-.663.386-1.137.508-1.58.5-1.842.275-3.576-.707-5.46-.247-.469-.54-.9-.868-1.376L.216 6.93l.112-.075c.565-.386 1.162-.804 1.705-1.297a9.46 9.46 0 0 0 2.082-2.67c.348-.667.603-1.368.855-2.088l.065-.188.15.132c.749.663 1.597 1.412 2.719 1.668.295.066.594.101.917.101.51 0 1.065-.084 1.7-.256 1.1-.295 2.116-.438 3.105-.438.989 0 2 .143 3.093.438.636.172 1.191.256 1.7.256.322 0 .623-.035.917-.101 1.123-.256 1.97-1.005 2.719-1.668l.15-.132.066.188c.25.72.505 1.42.854 2.087a9.466 9.466 0 0 0 2.08 2.67c.544.494 1.142.912 1.707 1.298l.113.075-.078.112c-.328.475-.62.907-.867 1.375-.982 1.883-1.207 3.618-.708 5.461.122.443.273.917.507 1.578.35.992.607 2.1.744 3.21.188 1.538.144 3.067-.129 4.42-.32 1.588-.942 2.934-1.848 4.004-1.383 1.631-3.222 2.568-4.997 3.477-1.483.757-2.807 1.469-4 2.493-.76.644-1.4 1.362-1.926 1.978l-.103.12-.102-.12zm4.153-4.362c1.374-.767 2.843-1.409 4.16-2.261V2.036c-1.317 1.1-2.639 1.442-4.16 1.252v9.53a5.333 5.333 0 0 1-.415-.854c-.784.627-1.356.804-2.336.568-.953-.234-1.647-.234-2.6 0-.98.236-1.551.06-2.335-.568a5.22 5.22 0 0 1-.417.854v-9.53c-1.521.19-2.843-.157-4.16-1.252v26.379c1.317.852 2.787 1.494 4.16 2.26v-8.06c.742.524 1.634.826 2.436 1.265.628.342 1.127.757 1.616 1.274.49-.517.989-.932 1.616-1.274.802-.439 1.694-.74 2.435-1.266v8.062zM6.87 10.59c-.564-.104-1.205.047-1.317.095.057-.16.147-.195.264-.287.078-.065.096-.155.113-.484V5.41c0-.196-.126-.369-.265-.495h2.054c.438 0 .703.056 1.01.416.434.51.554 1.283.13 1.86-.156.215-.407.368-.728.423.368.039.694.269.936.572.646.793.36 2.084-.629 2.426-.468.164-1.087.025-1.568-.022m.173-5.133v1.906h.369c.497 0 .58-.529.576-1.035-.004-.373.053-.776-.242-.954-.096-.056-.282-.08-.434-.09-.152-.009-.269.01-.269.173m.144 4.752c-.087-.009-.135-.056-.144-.195V7.86l.43-.004c.358 0 .541.204.633.486.116.369.142 1.017.043 1.386-.118.459-.552.544-.962.48zm11.47 17.338c.506.008.745.637.337.893 0 .269.412.342.685.216.286-.148.399-.48.346-.78-.098-.585-.536-.585-1.014-.61v-.313c.456-.008.875 0 .967-.558.073-.446-.187-.845-.646-.832-.182.008-.342.083-.351.238.403.244.199.907-.302.914-.434 0-.613-.436-.509-.78.153-.494.773-.767 1.258-.761.554-.01 1.377.29 1.49.901.074.399-.221.796-.714 1.014.484.15.822.588.753 1.026-.112.637-.945 1.017-1.508 1.01-.493.003-1.122-.28-1.279-.79-.104-.356.049-.788.486-.788zm-9.646 1.49H7.216l-.026-.216.46-.364v-2.161h-.651v-.4c.356-.133.702-.246 1.1-.636h.481v3.197l.46.364-.03.216zM12.54 4.934h2.7c-.143.126-.265.282-.265.477v4.721c.014.308.018.416.082.477a.51.51 0 0 0-.337.025c-.78.234-1.7.472-2.497.178-.328-.126-.658-.334-.858-.642-.35-.554-.22-1.476.586-1.411.302.025.585.212.585.531.017.369-.273.578-.646.534-.004 0-.01.04-.013.04.048.393.42.567.793.637.53.1 1.096-.027 1.096-.473V5.315c-.247-.048-.601-.065-.819 0-.286.087-.43.182-.65.12a.97.97 0 0 0 .243-.5zm6.673 2.313l.932-1.606c.173-.3.104-.46-.152-.707h1.43c-.32.191-.508.338-.697.65l-1.088 1.78c.77-.083 1.18.455 1.365 1.442.116.619.126 1.447.684 1.863h-.676c-1.403.077-.42-2.924-1.798-2.924v2.169c.013.33.03.42.114.485.116.092.216.126.271.287-.442-.091-1.356-.118-1.814.017a.624.624 0 0 1 .242-.337c.078-.06.096-.122.112-.451V5.41c0-.196-.125-.35-.269-.477h1.609c-.143.126-.265.281-.265.477v1.836zm-3.805 17.932c.906 0 1.647.883 1.647 1.97s-.74 1.972-1.647 1.972c-.91 0-1.65-.885-1.65-1.972s.74-1.97 1.65-1.97zm0 .399c-.32 0-.58.706-.58 1.571 0 .867.26 1.573.58 1.573.318 0 .577-.706.577-1.573 0-.865-.26-1.571-.577-1.571zm-3.83 0c-.584 0-.637 1.46 0 1.46.615 0 .603-1.46 0-1.46zm-.173 2.898c-.004.15.026.246.173.246.316-.008.568-.698.55-1.465-.48.305-1.13.273-1.547-.022-.57-.407-.489-1.26-.017-1.7.273-.252.654-.366 1.014-.356.894 0 1.621.883 1.621 1.97s-.727 1.972-1.62 1.972c-.312.007-.789-.122-1.067-.39-.381-.365-.286-1.04.313-1.07.29-.013.48.09.572.268.077.152.09.415.008.547zm67.63-13.288v-.295c0-.141-.018-.262-.054-.36-.035-.098-.143-.147-.32-.147h-4.301l-.518 1.79h4.606c.213 0 .364-.12.454-.36.089-.242.133-.45.133-.628zm3.714-2.966c.178.41.298.856.36 1.336.062.48.094.925.094 1.335 0 .908-.179 1.656-.533 2.243a4.256 4.256 0 0 1-1.35 1.403 5.67 5.67 0 0 1-1.778.747c-.64.151-1.247.255-1.816.31l4.194 5.367h-4.596l-4.381-5.074-.241.213-1.416 4.861h-4.114l4.142-14.156h9.538c.481 0 .872.134 1.175.401.302.266.543.604.722 1.014zm-23.54-1.415h4.57l-7.4 7.077 4.113 7.08h-4.596l-4.168-6.358-1.87 6.357h-4.115l4.142-14.156h4.087l-1.842 6.357 7.08-6.357zm34.08.788c.275-.365.512-.627.707-.788h10.715c-.107.25-.276.575-.507.975-.233.4-.482.798-.75 1.188-.267.392-.525.731-.774 1.016-.25.284-.426.427-.535.427H99.61l-3.073 10.55h-4.089l3.074-10.55h-4.035v-.026c.017-.071.12-.269.308-.589.187-.321.414-.676.681-1.069.266-.39.539-.768.815-1.134zm23.124-.788l-3.098 10.55h6.786c.018 0-.068.152-.254.453a35.16 35.16 0 0 1-1.524 2.257c-.293.4-.538.7-.734.896h-9.405l4.142-14.156h4.087zm19.083 3.338l3.046-3.338h4.569l-6.732 7.424-1.979 6.731h-4.089l1.952-6.73-2.405-7.425h4.569l1.07 3.338zm19.638 6.197l5.931-9.535h4.41l-7.589 12.5a17.656 17.656 0 0 1-.734.975 4.036 4.036 0 0 1-.456.48c-.15.133-.28.2-.386.2h-3.527c-.16 0-.294-.097-.4-.294a3.869 3.869 0 0 1-.294-.72 6.826 6.826 0 0 1-.215-.896 10.83 10.83 0 0 0-.16-.786l-1.31-11.46h3.716l1.014 9.536zm19.824-9.535h10.902c-.34.605-.714 1.211-1.122 1.817a20.37 20.37 0 0 1-1.39 1.815h-7.053c-.16 0-.3.134-.414.401-.116.266-.173.48-.173.641v.151s.026.04.079.103a2.4 2.4 0 0 0 .134.147.776.776 0 0 0 .24.2.82.82 0 0 0 .187.093h4.061c.445 0 .833.139 1.162.415.33.276.601.622.816 1.042.213.416.369.868.467 1.347.098.482.147.926.147 1.336v.16c0 .463-.085.957-.254 1.484a6.3 6.3 0 0 1-.681 1.453 4.744 4.744 0 0 1-.962 1.11c-.357.293-.73.441-1.123.441h-10.9c.07-.178.218-.464.44-.855a45.109 45.109 0 0 1 1.39-2.256c.205-.313.334-.468.388-.468h7.266c.214 0 .34-.08.374-.24.036-.16.054-.33.054-.508v-.321c0-.141-.018-.29-.054-.44-.034-.153-.115-.227-.24-.227h-4.274a1.9 1.9 0 0 1-1.163-.388 3.375 3.375 0 0 1-.881-.987 5.302 5.302 0 0 1-.561-1.323c-.135-.48-.201-.952-.201-1.416 0-.428.098-.911.293-1.455a7.47 7.47 0 0 1 .776-1.55c.32-.488.676-.898 1.068-1.228.392-.33.792-.494 1.202-.494zM35.034 33.5V2.266h.837V33.5h-.837z"/>
        <path fill="#C5242B" d="M13.62 24.599c.425-.421.906-.773 1.435-1.058.98-.532 2.157-.875 2.932-1.706.452-.482.682-1.109.755-1.767a5.094 5.094 0 0 0-.311-2.305c-.369-.957-.53-1.68-.114-2.663.104-.243.23-.477.377-.693-.689-.463-1.257-1.075-1.603-1.833-.71.494-1.44.528-2.262.33-.89-.217-1.53-.217-2.418 0-.823.198-1.552.16-2.261-.33-.348.758-.916 1.37-1.604 1.833.147.216.273.45.377.693.417.984.256 1.706-.113 2.663a5.056 5.056 0 0 0-.311 2.305c.073.658.302 1.285.753 1.767.776.831 1.955 1.174 2.934 1.706A6.255 6.255 0 0 1 13.62 24.6m2.197-8.335a3.385 3.385 0 0 1 1.248 2.617c0 1.875-1.552 3.405-3.445 3.405-1.894 0-3.445-1.53-3.445-3.405a3.39 3.39 0 0 1 1.248-2.617c-.3.434-.472.95-.472 1.512a2.675 2.675 0 0 0 2.669 2.664c1.47 0 2.67-1.2 2.67-2.664 0-.562-.174-1.081-.473-1.512zm-2.197.442l-.32-1h-1.054l.854-.615-.33-1.002.85.62.849-.62-.33 1.002.855.614H13.94l-.32 1.001z"/>
    </g>
</svg>
