<svg xmlns="http://www.w3.org/2000/svg" width="59" height="75" viewBox="0 0 59 75">
    <g fill="none" fill-rule="evenodd">
        <path fill="#FFFFFE" d="M29.058 74.435c-1.131-1.317-2.51-2.852-4.141-4.229-2.567-2.191-5.41-3.713-8.597-5.333-3.82-1.943-7.769-3.948-10.746-7.437-1.945-2.29-3.282-5.168-3.97-8.565-.586-2.893-.682-6.163-.277-9.453.292-2.372.846-4.744 1.6-6.862.503-1.418.83-2.431 1.09-3.379 1.071-3.939.589-7.65-1.525-11.68-.527-1.001-1.156-1.925-1.861-2.94l-.167-.24.244-.16c1.215-.827 2.495-1.721 3.663-2.776 1.852-1.658 3.358-3.577 4.475-5.71.75-1.427 1.295-2.926 1.837-4.466l.143-.402.322.281c1.605 1.419 3.43 3.02 5.842 3.569a8.894 8.894 0 0 0 1.971.216c1.096 0 2.29-.18 3.657-.548 2.367-.63 4.547-.936 6.673-.936 2.126 0 4.3.305 6.649.936 1.367.367 2.56.548 3.653.548.694 0 1.337-.074 1.972-.216 2.415-.548 4.237-2.15 5.842-3.569l.324-.281.14.402c.542 1.54 1.09 3.039 1.84 4.463a20.26 20.26 0 0 0 4.473 5.713c1.167 1.055 2.454 1.949 3.669 2.775l.24.16-.166.24c-.709 1.016-1.337 1.94-1.864 2.94-2.111 4.029-2.597 7.74-1.522 11.681.262.948.587 1.96 1.093 3.376.75 2.12 1.301 4.493 1.596 6.865.405 3.29.307 6.56-.28 9.453-.685 3.397-2.022 6.276-3.969 8.565-2.975 3.489-6.926 5.494-10.743 7.437-3.186 1.62-6.033 3.142-8.597 5.333-1.635 1.377-3.01 2.912-4.145 4.23l-.217.257-.22-.258z"/>
        <path fill="#FFFFFE" d="M29.28 74.25c-1.305-1.522-2.639-2.967-4.172-4.261-2.639-2.251-5.58-3.812-8.656-5.376-3.865-1.963-7.73-3.935-10.657-7.365C1.697 52.433.869 45.512 1.614 39.452c.298-2.402.846-4.726 1.581-6.8.432-1.205.804-2.315 1.099-3.4 1.167-4.273.48-8.031-1.543-11.887-.55-1.048-1.212-2.01-1.882-2.973 1.287-.871 2.54-1.75 3.696-2.796C6.42 9.935 7.947 8.01 9.103 5.806c.762-1.457 1.313-2.967 1.855-4.504 1.786 1.572 3.555 3.083 5.97 3.63 1.703.391 3.558.261 5.765-.334 4.621-1.232 8.552-1.238 13.17 0 2.21.595 4.062.725 5.765.335 2.415-.548 4.183-2.059 5.973-3.631.539 1.537 1.09 3.047 1.852 4.504 1.155 2.204 2.683 4.129 4.538 5.79 1.155 1.045 2.412 1.925 3.698 2.796-.673.962-1.33 1.925-1.882 2.973-2.021 3.856-2.712 7.605-1.545 11.888.295 1.084.67 2.194 1.099 3.4.735 2.073 1.283 4.397 1.58 6.8.748 6.059-.08 12.98-4.18 17.795-2.927 3.43-6.792 5.402-10.654 7.365-3.079 1.564-6.02 3.125-8.656 5.376-1.536 1.294-2.87 2.74-4.172 4.261"/>
        <path fill="#000" d="M29.28 72.99c-2.284-2.651-4.807-4.82-7.817-6.614-5.116-3.06-11.056-4.996-15.034-9.654-2.439-2.864-3.698-6.599-4.1-10.487-.465-4.597.262-9.415 1.65-13.312.866-2.464 1.53-4.534 1.714-6.652.271-3.246-.717-6.441-2.206-9.284a24.54 24.54 0 0 0-1.462-2.381c2.197-1.484 4.142-3.16 5.774-5.254 1.58-2.029 2.673-4.215 3.531-6.625 3.669 3.204 6.902 3.92 11.577 2.671 4.71-1.27 8.031-1.27 12.745 0 4.675 1.25 7.905.533 11.574-2.671.857 2.41 1.95 4.596 3.531 6.625 1.632 2.094 3.576 3.77 5.774 5.254a23.943 23.943 0 0 0-1.459 2.38c-1.492 2.844-2.49 6.04-2.21 9.285.185 2.118.85 4.188 1.716 6.652 1.387 3.897 2.114 8.715 1.64 13.312-.393 3.888-1.65 7.623-4.091 10.487-3.975 4.658-9.919 6.595-15.034 9.654-3.008 1.795-5.533 3.963-7.814 6.613"/>
        <path fill="#FFFFFE" d="M37.988 65.105c2.951-1.64 6.11-3.011 8.942-4.836V3.85C44.1 6.2 41.258 6.932 37.988 6.526V26.91a11.14 11.14 0 0 1-.896-1.827c-1.685 1.342-2.912 1.72-5.017 1.214-2.052-.5-3.544-.5-5.59 0-2.104.507-3.334.128-5.023-1.214a11.138 11.138 0 0 1-.893 1.827V6.526c-3.27.406-6.11-.334-8.945-2.677v56.42c2.835 1.825 5.991 3.196 8.945 4.836V47.863c1.593 1.123 3.51 1.768 5.235 2.707 1.349.732 2.424 1.62 3.475 2.725 1.054-1.105 2.123-1.993 3.472-2.725 1.724-.939 3.644-1.584 5.237-2.707v17.242z"/>
        <path fill="#C5242B" d="M29.28 52.108c.914-.9 1.944-1.652 3.081-2.263 2.106-1.137 4.64-1.871 6.307-3.648.97-1.03 1.462-2.372 1.62-3.78.187-1.705-.113-3.494-.67-4.93-.792-2.046-1.138-3.592-.241-5.695a8.727 8.727 0 0 1 .81-1.484c-1.483-.989-2.701-2.298-3.449-3.92-1.527 1.056-3.09 1.13-4.862.707-1.909-.465-3.284-.465-5.196 0-1.772.423-3.335.34-4.863-.708-.744 1.623-1.965 2.932-3.445 3.921.313.462.584.963.807 1.484.896 2.103.551 3.649-.241 5.695-.557 1.436-.858 3.225-.67 4.93.158 1.408.652 2.75 1.623 3.78 1.664 1.777 4.198 2.511 6.304 3.648 1.137.61 2.17 1.363 3.084 2.263m4.723-17.827c1.638 1.345 2.68 3.356 2.68 5.597 0 4.01-3.335 7.283-7.403 7.283-4.07 0-7.405-3.273-7.405-7.283 0-2.241 1.042-4.252 2.683-5.597a5.633 5.633 0 0 0-1.019 3.234c0 3.13 2.585 5.698 5.741 5.698 3.16 0 5.738-2.568 5.738-5.698a5.617 5.617 0 0 0-1.015-3.234m-4.723.946l.688-2.141h2.263l-1.834-1.315.706-2.142-1.823 1.327-1.825-1.327.706 2.142-1.834 1.315h2.266l.687 2.14z"/>
        <path fill="#FFFFFE" d="M33.127 53.349c1.944 0 3.537 1.89 3.537 4.214 0 2.325-1.593 4.217-3.537 4.217-1.957 0-3.55-1.892-3.55-4.217 0-2.325 1.593-4.214 3.55-4.214m0 .853c-.688 0-1.251 1.51-1.251 3.361 0 1.854.563 3.365 1.25 3.365.68 0 1.24-1.51 1.24-3.365 0-1.85-.56-3.361-1.24-3.361m-8.234 0c1.295 0 1.322 3.121 0 3.121-1.37 0-1.26-3.121 0-3.121m-.373 6.198c.179-.281.15-.844-.02-1.17-.194-.378-.605-.6-1.23-.574-1.287.065-1.49 1.51-.67 2.29.598.574 1.62.85 2.293.834 1.92 0 3.483-1.892 3.483-4.217 0-2.325-1.563-4.214-3.483-4.214-.775-.02-1.594.222-2.18.761-1.016.942-1.194 2.766.036 3.637.896.63 2.292.699 3.326.047.035 1.64-.5 3.116-1.182 3.134-.316 0-.382-.205-.373-.528"/>
        <path fill="#000" d="M40.103 58.416c1.09.018 1.602 1.362.726 1.91 0 .575.885.732 1.471.462.614-.317.858-1.028.745-1.667-.215-1.253-1.153-1.253-2.177-1.306v-.67c.977-.017 1.882 0 2.075-1.193.158-.954-.402-1.807-1.387-1.78-.393.018-.739.178-.757.51.867.52.43 1.94-.649 1.954-.932 0-1.316-.933-1.093-1.667.328-1.058 1.659-1.641 2.704-1.63 1.191-.02 2.963.62 3.204 1.929.158.853-.473 1.703-1.54 2.168 1.046.322 1.772 1.258 1.624 2.194-.242 1.362-2.031 2.177-3.243 2.16-1.06.008-2.412-.596-2.749-1.689-.223-.761.105-1.685 1.046-1.685M19.366 61.603H15.51l-.053-.462.985-.779V55.74h-1.396v-.853c.765-.287 1.51-.527 2.367-1.362h1.03v6.838l.989.78-.066.461zM14.766 22.146c-1.212-.223-2.59.1-2.832.204.123-.344.316-.418.566-.613.17-.14.209-.332.244-1.037v-9.634c0-.417-.27-.787-.568-1.057h4.416c.94 0 1.51.119 2.17.889.93 1.092 1.191 2.745.28 3.977-.336.462-.875.788-1.566.906.792.083 1.492.575 2.013 1.223 1.387 1.697.774 4.457-1.352 5.189-1.004.352-2.337.053-3.37-.047m.371-10.979v4.078h.793c1.071 0 1.25-1.131 1.238-2.215-.009-.797.113-1.658-.52-2.04-.21-.119-.605-.172-.933-.193-.327-.018-.578.02-.578.37m.31 10.164c-.187-.018-.292-.118-.31-.417v-4.606l.924-.008c.77 0 1.164.435 1.36 1.039.25.788.307 2.174.093 2.965-.253.98-1.185 1.163-2.067 1.027zm25.856-6.338l2.003-3.435c.373-.64.224-.983-.327-1.51h3.076c-.69.408-1.093.722-1.5 1.389l-2.338 3.808c1.655-.177 2.53.972 2.933 3.083.253 1.324.27 3.095 1.47 3.986H45.17c-3.017.163-.903-6.254-3.865-6.254v4.64c.03.705.062.898.24 1.037.254.195.468.27.587.613-.95-.196-2.912-.252-3.9.035.122-.34.262-.527.52-.72.167-.13.206-.26.245-.965v-9.634c0-.417-.271-.749-.58-1.018h3.453c-.303.27-.565.6-.565 1.018v3.927z"/>
        <path fill="#FFFFFE" d="M26.959 10.048h5.803c-.306.27-.568.601-.568 1.019v10.099c.03.657.038.888.175 1.018a1.113 1.113 0 0 0-.726.054c-1.674.5-3.648 1.01-5.366.382-.706-.27-1.414-.714-1.843-1.374-.756-1.185-.474-3.157 1.256-3.018.656.053 1.26.453 1.26 1.137.039.788-.587 1.235-1.39 1.14-.01 0-.018.086-.027.086.104.841.905 1.214 1.706 1.362 1.137.214 2.358-.056 2.358-1.01v-10.08c-.533-.104-1.298-.14-1.763 0-.613.186-.923.387-1.396.257.268-.323.446-.619.52-1.072"/>
    </g>
</svg>
